ISO-10303-21;
HEADER;
/* Generated by software containing ST-Developer
 * from STEP Tools, Inc. (www.steptools.com) 
 */
/* OPTION: strings as raw bytes, not using required /X/ escapes */

FILE_DESCRIPTION(
/* description */ ('Rueda JS2622'),
/* implementation_level */ '2;1');

FILE_NAME(
/* name */ 'Rueda_JS2622',
/* time_stamp */ '2025-12-05T09:51:15-03:00',
/* author */ ('Juan Manuel Dominici'),
/* organization */ ('-'),
/* preprocessor_version */ 'ST-DEVELOPER v16.7',
/* originating_system */ 'Solid Edge',
/* authorisation */ 'Unknown');

FILE_SCHEMA (('AUTOMOTIVE_DESIGN {1 0 10303 214 3 1 1}'));
ENDSEC;

DATA;
#10=PROPERTY_DEFINITION_REPRESENTATION(#14,#12);
#11=PROPERTY_DEFINITION_REPRESENTATION(#15,#13);
#12=REPRESENTATION('',(#16),#985);
#13=REPRESENTATION('',(#17),#985);
#14=PROPERTY_DEFINITION('pmi validation property','',#994);
#15=PROPERTY_DEFINITION('pmi validation property','',#994);
#16=VALUE_REPRESENTATION_ITEM('number of annotations',COUNT_MEASURE(0.));
#17=VALUE_REPRESENTATION_ITEM('number of views',COUNT_MEASURE(0.));
#18=CONTEXT_DEPENDENT_SHAPE_REPRESENTATION(#22,#996);
#19=CONTEXT_DEPENDENT_SHAPE_REPRESENTATION(#23,#998);
#20=NEXT_ASSEMBLY_USAGE_OCCURRENCE('JS2622','JS2622','JS2622',#999,#1000,
'');
#21=NEXT_ASSEMBLY_USAGE_OCCURRENCE('Goma JS2622','Goma JS2622',
'Goma JS2622',#999,#1001,'');
#22=(
REPRESENTATION_RELATIONSHIP(' ',' ',#508,#509)
REPRESENTATION_RELATIONSHIP_WITH_TRANSFORMATION(#24)
SHAPE_REPRESENTATION_RELATIONSHIP()
);
#23=(
REPRESENTATION_RELATIONSHIP(' ',' ',#510,#509)
REPRESENTATION_RELATIONSHIP_WITH_TRANSFORMATION(#25)
SHAPE_REPRESENTATION_RELATIONSHIP()
);
#24=ITEM_DEFINED_TRANSFORMATION(' ',' ',#511,#573);
#25=ITEM_DEFINED_TRANSFORMATION(' ',' ',#511,#582);
#26=SHAPE_REPRESENTATION_RELATIONSHIP('','',#508,#28);
#27=SHAPE_REPRESENTATION_RELATIONSHIP('','',#510,#29);
#28=ADVANCED_BREP_SHAPE_REPRESENTATION('',(#503),#986);
#29=ADVANCED_BREP_SHAPE_REPRESENTATION('',(#504),#987);
#30=B_SPLINE_SURFACE_WITH_KNOTS('',1,3,((#934,#935,#936,#937,#938,#939,
#940,#941,#942,#943,#944,#945,#946,#947,#948,#949,#950,#951),(#952,#953,
#954,#955,#956,#957,#958,#959,#960,#961,#962,#963,#964,#965,#966,#967,#968,
#969)),.RULED_SURF.,.F.,.T.,.F.,(2,2),(2,2,2,2,2,2,2,2,2,2,2),(0.,1.),(0.874978577078097,
0.999978577078097,1.1249785770781,1.2499785770781,1.3749785770781,1.4999785770781,
1.6249785770781,1.7499785770781,1.8749785770781,1.9999785770781,2.1249785770781),
 .UNSPECIFIED.);
#31=CONICAL_SURFACE('',#561,1.5,1.10714871779408);
#32=CONICAL_SURFACE('',#562,1.9,1.10714871779409);
#33=CONICAL_SURFACE('',#563,11.5,0.785398163397448);
#34=CONICAL_SURFACE('',#564,11.3,0.785398163397453);
#35=CONICAL_SURFACE('',#565,11.3,0.785398163397448);
#36=CONICAL_SURFACE('',#566,11.5,0.785398163397453);
#37=CONICAL_SURFACE('',#567,8.65,0.785398163397446);
#38=TOROIDAL_SURFACE('',#534,9.8,0.3);
#39=TOROIDAL_SURFACE('',#536,9.8,0.3);
#40=PLANE('',#527);
#41=PLANE('',#538);
#42=PLANE('',#540);
#43=PLANE('',#542);
#44=PLANE('',#551);
#45=PLANE('',#571);
#46=PLANE('',#572);
#47=PLANE('',#580);
#48=PLANE('',#581);
#49=LINE('',#807,#51);
#50=LINE('',#821,#52);
#51=VECTOR('',#609,1000.);
#52=VECTOR('',#610,1000.);
#53=CIRCLE('',#513,9.5);
#54=CIRCLE('',#514,9.5);
#55=CIRCLE('',#516,1.5);
#56=CIRCLE('',#517,1.5);
#57=CIRCLE('',#519,1.5);
#58=CIRCLE('',#520,1.5);
#59=CIRCLE('',#522,1.5);
#60=CIRCLE('',#523,1.5);
#61=CIRCLE('',#525,11.5);
#62=CIRCLE('',#526,11.5);
#63=CIRCLE('',#528,11.3);
#64=CIRCLE('',#529,1.9);
#65=CIRCLE('',#530,1.5);
#66=CIRCLE('',#531,1.5);
#67=CIRCLE('',#532,1.5);
#68=CIRCLE('',#533,1.5);
#69=CIRCLE('',#535,9.8);
#70=CIRCLE('',#537,9.8);
#71=CIRCLE('',#539,11.3);
#72=CIRCLE('',#541,11.3);
#73=CIRCLE('',#543,8.65);
#74=CIRCLE('',#544,11.3);
#75=CIRCLE('',#546,11.5);
#76=CIRCLE('',#547,11.5);
#77=CIRCLE('',#549,8.25);
#78=CIRCLE('',#550,8.25);
#79=CIRCLE('',#552,1.89999999999999);
#80=CIRCLE('',#553,1.5);
#81=CIRCLE('',#554,1.5);
#82=CIRCLE('',#555,1.5);
#83=CIRCLE('',#556,1.5);
#84=CIRCLE('',#569,1.75);
#85=CIRCLE('',#570,1.75);
#86=CIRCLE('',#575,9.5);
#87=CIRCLE('',#576,9.5);
#88=CIRCLE('',#578,13.);
#89=CIRCLE('',#579,13.);
#90=ORIENTED_EDGE('',*,*,#180,.T.);
#91=ORIENTED_EDGE('',*,*,#181,.F.);
#92=ORIENTED_EDGE('',*,*,#182,.T.);
#93=ORIENTED_EDGE('',*,*,#183,.T.);
#94=ORIENTED_EDGE('',*,*,#184,.F.);
#95=ORIENTED_EDGE('',*,*,#185,.T.);
#96=ORIENTED_EDGE('',*,*,#186,.T.);
#97=ORIENTED_EDGE('',*,*,#187,.F.);
#98=ORIENTED_EDGE('',*,*,#188,.T.);
#99=ORIENTED_EDGE('',*,*,#189,.T.);
#100=ORIENTED_EDGE('',*,*,#190,.T.);
#101=ORIENTED_EDGE('',*,*,#191,.T.);
#102=ORIENTED_EDGE('',*,*,#192,.T.);
#103=ORIENTED_EDGE('',*,*,#193,.T.);
#104=ORIENTED_EDGE('',*,*,#194,.T.);
#105=ORIENTED_EDGE('',*,*,#195,.T.);
#106=ORIENTED_EDGE('',*,*,#196,.T.);
#107=ORIENTED_EDGE('',*,*,#197,.T.);
#108=ORIENTED_EDGE('',*,*,#198,.T.);
#109=ORIENTED_EDGE('',*,*,#199,.T.);
#110=ORIENTED_EDGE('',*,*,#187,.T.);
#111=ORIENTED_EDGE('',*,*,#184,.T.);
#112=ORIENTED_EDGE('',*,*,#200,.T.);
#113=ORIENTED_EDGE('',*,*,#201,.T.);
#114=ORIENTED_EDGE('',*,*,#202,.T.);
#115=ORIENTED_EDGE('',*,*,#182,.F.);
#116=ORIENTED_EDGE('',*,*,#203,.T.);
#117=ORIENTED_EDGE('',*,*,#204,.F.);
#118=ORIENTED_EDGE('',*,*,#181,.T.);
#119=ORIENTED_EDGE('',*,*,#205,.T.);
#120=ORIENTED_EDGE('',*,*,#204,.T.);
#121=ORIENTED_EDGE('',*,*,#206,.T.);
#122=ORIENTED_EDGE('',*,*,#203,.F.);
#123=ORIENTED_EDGE('',*,*,#207,.T.);
#124=ORIENTED_EDGE('',*,*,#208,.T.);
#125=ORIENTED_EDGE('',*,*,#209,.T.);
#126=ORIENTED_EDGE('',*,*,#210,.T.);
#127=ORIENTED_EDGE('',*,*,#211,.T.);
#128=ORIENTED_EDGE('',*,*,#212,.T.);
#129=ORIENTED_EDGE('',*,*,#213,.T.);
#130=ORIENTED_EDGE('',*,*,#214,.F.);
#131=ORIENTED_EDGE('',*,*,#186,.F.);
#132=ORIENTED_EDGE('',*,*,#183,.F.);
#133=ORIENTED_EDGE('',*,*,#215,.F.);
#134=ORIENTED_EDGE('',*,*,#216,.F.);
#135=ORIENTED_EDGE('',*,*,#217,.F.);
#136=ORIENTED_EDGE('',*,*,#212,.F.);
#137=ORIENTED_EDGE('',*,*,#217,.T.);
#138=ORIENTED_EDGE('',*,*,#202,.F.);
#139=ORIENTED_EDGE('',*,*,#216,.T.);
#140=ORIENTED_EDGE('',*,*,#201,.F.);
#141=ORIENTED_EDGE('',*,*,#215,.T.);
#142=ORIENTED_EDGE('',*,*,#200,.F.);
#143=ORIENTED_EDGE('',*,*,#214,.T.);
#144=ORIENTED_EDGE('',*,*,#199,.F.);
#145=ORIENTED_EDGE('',*,*,#213,.F.);
#146=ORIENTED_EDGE('',*,*,#189,.F.);
#147=ORIENTED_EDGE('',*,*,#190,.F.);
#148=ORIENTED_EDGE('',*,*,#198,.F.);
#149=ORIENTED_EDGE('',*,*,#205,.F.);
#150=ORIENTED_EDGE('',*,*,#195,.F.);
#151=ORIENTED_EDGE('',*,*,#196,.F.);
#152=ORIENTED_EDGE('',*,*,#197,.F.);
#153=ORIENTED_EDGE('',*,*,#209,.F.);
#154=ORIENTED_EDGE('',*,*,#206,.F.);
#155=ORIENTED_EDGE('',*,*,#208,.F.);
#156=ORIENTED_EDGE('',*,*,#210,.F.);
#157=ORIENTED_EDGE('',*,*,#211,.F.);
#158=ORIENTED_EDGE('',*,*,#207,.F.);
#159=ORIENTED_EDGE('',*,*,#218,.T.);
#160=ORIENTED_EDGE('',*,*,#188,.F.);
#161=ORIENTED_EDGE('',*,*,#219,.F.);
#162=ORIENTED_EDGE('',*,*,#193,.F.);
#163=ORIENTED_EDGE('',*,*,#220,.F.);
#164=ORIENTED_EDGE('',*,*,#191,.F.);
#165=ORIENTED_EDGE('',*,*,#185,.F.);
#166=ORIENTED_EDGE('',*,*,#220,.T.);
#167=ORIENTED_EDGE('',*,*,#192,.F.);
#168=ORIENTED_EDGE('',*,*,#219,.T.);
#169=ORIENTED_EDGE('',*,*,#194,.F.);
#170=ORIENTED_EDGE('',*,*,#180,.F.);
#171=ORIENTED_EDGE('',*,*,#218,.F.);
#172=ORIENTED_EDGE('',*,*,#221,.F.);
#173=ORIENTED_EDGE('',*,*,#222,.T.);
#174=ORIENTED_EDGE('',*,*,#223,.T.);
#175=ORIENTED_EDGE('',*,*,#224,.F.);
#176=ORIENTED_EDGE('',*,*,#221,.T.);
#177=ORIENTED_EDGE('',*,*,#223,.F.);
#178=ORIENTED_EDGE('',*,*,#222,.F.);
#179=ORIENTED_EDGE('',*,*,#224,.T.);
#180=EDGE_CURVE('',#225,#225,#268,.T.);
#181=EDGE_CURVE('',#226,#226,#53,.T.);
#182=EDGE_CURVE('',#227,#227,#54,.T.);
#183=EDGE_CURVE('',#228,#228,#55,.F.);
#184=EDGE_CURVE('',#229,#229,#56,.T.);
#185=EDGE_CURVE('',#230,#230,#269,.T.);
#186=EDGE_CURVE('',#231,#231,#57,.F.);
#187=EDGE_CURVE('',#232,#232,#58,.T.);
#188=EDGE_CURVE('',#233,#233,#270,.T.);
#189=EDGE_CURVE('',#234,#234,#59,.F.);
#190=EDGE_CURVE('',#235,#235,#60,.T.);
#191=EDGE_CURVE('',#236,#237,#271,.T.);
#192=EDGE_CURVE('',#237,#238,#49,.T.);
#193=EDGE_CURVE('',#238,#239,#272,.T.);
#194=EDGE_CURVE('',#239,#236,#50,.F.);
#195=EDGE_CURVE('',#240,#240,#61,.T.);
#196=EDGE_CURVE('',#241,#241,#62,.F.);
#197=EDGE_CURVE('',#242,#242,#63,.T.);
#198=EDGE_CURVE('',#243,#243,#64,.F.);
#199=EDGE_CURVE('',#244,#244,#65,.T.);
#200=EDGE_CURVE('',#245,#245,#66,.T.);
#201=EDGE_CURVE('',#246,#246,#67,.T.);
#202=EDGE_CURVE('',#247,#247,#68,.T.);
#203=EDGE_CURVE('',#248,#248,#69,.T.);
#204=EDGE_CURVE('',#249,#249,#70,.T.);
#205=EDGE_CURVE('',#250,#250,#71,.F.);
#206=EDGE_CURVE('',#251,#251,#72,.F.);
#207=EDGE_CURVE('',#252,#252,#73,.T.);
#208=EDGE_CURVE('',#253,#253,#74,.F.);
#209=EDGE_CURVE('',#254,#254,#75,.T.);
#210=EDGE_CURVE('',#255,#255,#76,.T.);
#211=EDGE_CURVE('',#256,#256,#77,.F.);
#212=EDGE_CURVE('',#257,#257,#78,.T.);
#213=EDGE_CURVE('',#258,#258,#79,.T.);
#214=EDGE_CURVE('',#259,#259,#80,.F.);
#215=EDGE_CURVE('',#260,#260,#81,.F.);
#216=EDGE_CURVE('',#261,#261,#82,.F.);
#217=EDGE_CURVE('',#262,#262,#83,.F.);
#218=EDGE_CURVE('',#263,#263,#273,.T.);
#219=EDGE_CURVE('',#239,#236,#84,.T.);
#220=EDGE_CURVE('',#237,#238,#85,.T.);
#221=EDGE_CURVE('',#264,#264,#86,.T.);
#222=EDGE_CURVE('',#265,#265,#87,.T.);
#223=EDGE_CURVE('',#266,#266,#88,.T.);
#224=EDGE_CURVE('',#267,#267,#89,.T.);
#225=VERTEX_POINT('',#750);
#226=VERTEX_POINT('',#752);
#227=VERTEX_POINT('',#754);
#228=VERTEX_POINT('',#757);
#229=VERTEX_POINT('',#759);
#230=VERTEX_POINT('',#771);
#231=VERTEX_POINT('',#774);
#232=VERTEX_POINT('',#776);
#233=VERTEX_POINT('',#788);
#234=VERTEX_POINT('',#791);
#235=VERTEX_POINT('',#793);
#236=VERTEX_POINT('',#805);
#237=VERTEX_POINT('',#806);
#238=VERTEX_POINT('',#808);
#239=VERTEX_POINT('',#820);
#240=VERTEX_POINT('',#824);
#241=VERTEX_POINT('',#826);
#242=VERTEX_POINT('',#829);
#243=VERTEX_POINT('',#831);
#244=VERTEX_POINT('',#833);
#245=VERTEX_POINT('',#835);
#246=VERTEX_POINT('',#837);
#247=VERTEX_POINT('',#839);
#248=VERTEX_POINT('',#842);
#249=VERTEX_POINT('',#845);
#250=VERTEX_POINT('',#848);
#251=VERTEX_POINT('',#851);
#252=VERTEX_POINT('',#854);
#253=VERTEX_POINT('',#856);
#254=VERTEX_POINT('',#859);
#255=VERTEX_POINT('',#861);
#256=VERTEX_POINT('',#864);
#257=VERTEX_POINT('',#866);
#258=VERTEX_POINT('',#869);
#259=VERTEX_POINT('',#871);
#260=VERTEX_POINT('',#873);
#261=VERTEX_POINT('',#875);
#262=VERTEX_POINT('',#877);
#263=VERTEX_POINT('',#929);
#264=VERTEX_POINT('',#973);
#265=VERTEX_POINT('',#975);
#266=VERTEX_POINT('',#978);
#267=VERTEX_POINT('',#980);
#268=B_SPLINE_CURVE_WITH_KNOTS('',3,(#731,#732,#733,#734,#735,#736,#737,
#738,#739,#740,#741,#742,#743,#744,#745,#746,#747,#748,#749),
 .UNSPECIFIED.,.T.,.F.,(1,1,1,1,1,1,1,1,1,1,1,1,1,1,1,1,1,1,1,1,1,1,1),
(-0.190789473684211,-0.128289473684211,-0.0657894736842105,0.,0.059375,
0.12171875,0.1842109375,0.246710546875,0.30921052734375,0.371710526367187,
0.434210526318359,0.496710526315918,0.559210526315796,0.62171052631579,
0.684210526315789,0.746710526315789,0.809210526315789,0.871710526315789,
0.934210526315789,1.,1.059375,1.12171875,1.1842109375),.UNSPECIFIED.);
#269=B_SPLINE_CURVE_WITH_KNOTS('',3,(#760,#761,#762,#763,#764,#765,#766,
#767,#768,#769,#770),.UNSPECIFIED.,.T.,.F.,(1,1,1,1,1,1,1,1,1,1,1,1,1,1,
1),(-0.00209132768558661,-0.00139421845705774,-0.000697109228528871,0.,
0.000697109228528871,0.00139421845705774,0.00209132768558661,0.00278843691411548,
0.00348554614264435,0.00418265537117322,0.0048797645997021,0.00557687382823097,
0.00627398305675984,0.00697109228528871,0.00766820151381758),
 .UNSPECIFIED.);
#270=B_SPLINE_CURVE_WITH_KNOTS('',3,(#777,#778,#779,#780,#781,#782,#783,
#784,#785,#786,#787),.UNSPECIFIED.,.T.,.F.,(1,1,1,1,1,1,1,1,1,1,1,1,1,1,
1),(-0.00209132768558665,-0.00139421845705777,-0.000697109228528884,0.,
0.000697109228528884,0.00139421845705777,0.00209132768558665,0.00278843691411553,
0.00348554614264442,0.0041826553711733,0.00487976459970219,0.00557687382823107,
0.00627398305675995,0.00697109228528884,0.00766820151381772),
 .UNSPECIFIED.);
#271=B_SPLINE_CURVE_WITH_KNOTS('',3,(#794,#795,#796,#797,#798,#799,#800,
#801,#802,#803,#804),.UNSPECIFIED.,.F.,.F.,(4,1,1,1,1,1,1,1,4),(0.,0.000631464988238017,
0.00126292997647603,0.00189439496471405,0.00252585995295207,0.00315732494119009,
0.0037887899294281,0.00442025491766612,0.00505171990590414),
 .UNSPECIFIED.);
#272=B_SPLINE_CURVE_WITH_KNOTS('',3,(#809,#810,#811,#812,#813,#814,#815,
#816,#817,#818,#819),.UNSPECIFIED.,.F.,.F.,(4,1,1,1,1,1,1,1,4),(0.,0.000631464988238018,
0.00126292997647604,0.00189439496471405,0.00252585995295207,0.00315732494119009,
0.00378878992942811,0.00442025491766612,0.00505171990590414),
 .UNSPECIFIED.);
#273=B_SPLINE_CURVE_WITH_KNOTS('',3,(#890,#891,#892,#893,#894,#895,#896,
#897,#898,#899,#900,#901,#902,#903,#904,#905,#906,#907,#908,#909,#910,#911,
#912,#913,#914,#915,#916,#917,#918,#919,#920,#921,#922,#923,#924,#925,#926,
#927,#928),.UNSPECIFIED.,.T.,.F.,(4,1,1,1,1,1,1,1,1,1,1,1,1,1,1,1,1,1,1,
1,1,1,1,1,1,1,1,1,1,1,1,1,1,1,1,1,4),(0.,0.015625,0.03125,0.0625,0.09375,
0.125,0.15625,0.1875,0.25,0.28125,0.3125,0.34375,0.359375,0.375,0.40625,
0.421875,0.4296875,0.4375,0.453125,0.46875,0.5,0.5625,0.625,0.6875,0.71875,
0.75,0.765625,0.78125,0.7890625,0.796875,0.8125,0.84375,0.875,0.890625,
0.90625,0.9375,1.),.UNSPECIFIED.);
#274=EDGE_LOOP('',(#90));
#275=EDGE_LOOP('',(#91));
#276=EDGE_LOOP('',(#92));
#277=EDGE_LOOP('',(#93));
#278=EDGE_LOOP('',(#94));
#279=EDGE_LOOP('',(#95));
#280=EDGE_LOOP('',(#96));
#281=EDGE_LOOP('',(#97));
#282=EDGE_LOOP('',(#98));
#283=EDGE_LOOP('',(#99));
#284=EDGE_LOOP('',(#100));
#285=EDGE_LOOP('',(#101,#102,#103,#104));
#286=EDGE_LOOP('',(#105));
#287=EDGE_LOOP('',(#106));
#288=EDGE_LOOP('',(#107));
#289=EDGE_LOOP('',(#108));
#290=EDGE_LOOP('',(#109));
#291=EDGE_LOOP('',(#110));
#292=EDGE_LOOP('',(#111));
#293=EDGE_LOOP('',(#112));
#294=EDGE_LOOP('',(#113));
#295=EDGE_LOOP('',(#114));
#296=EDGE_LOOP('',(#115));
#297=EDGE_LOOP('',(#116));
#298=EDGE_LOOP('',(#117));
#299=EDGE_LOOP('',(#118));
#300=EDGE_LOOP('',(#119));
#301=EDGE_LOOP('',(#120));
#302=EDGE_LOOP('',(#121));
#303=EDGE_LOOP('',(#122));
#304=EDGE_LOOP('',(#123));
#305=EDGE_LOOP('',(#124));
#306=EDGE_LOOP('',(#125));
#307=EDGE_LOOP('',(#126));
#308=EDGE_LOOP('',(#127));
#309=EDGE_LOOP('',(#128));
#310=EDGE_LOOP('',(#129));
#311=EDGE_LOOP('',(#130));
#312=EDGE_LOOP('',(#131));
#313=EDGE_LOOP('',(#132));
#314=EDGE_LOOP('',(#133));
#315=EDGE_LOOP('',(#134));
#316=EDGE_LOOP('',(#135));
#317=EDGE_LOOP('',(#136));
#318=EDGE_LOOP('',(#137));
#319=EDGE_LOOP('',(#138));
#320=EDGE_LOOP('',(#139));
#321=EDGE_LOOP('',(#140));
#322=EDGE_LOOP('',(#141));
#323=EDGE_LOOP('',(#142));
#324=EDGE_LOOP('',(#143));
#325=EDGE_LOOP('',(#144));
#326=EDGE_LOOP('',(#145));
#327=EDGE_LOOP('',(#146));
#328=EDGE_LOOP('',(#147));
#329=EDGE_LOOP('',(#148));
#330=EDGE_LOOP('',(#149));
#331=EDGE_LOOP('',(#150));
#332=EDGE_LOOP('',(#151));
#333=EDGE_LOOP('',(#152));
#334=EDGE_LOOP('',(#153));
#335=EDGE_LOOP('',(#154));
#336=EDGE_LOOP('',(#155));
#337=EDGE_LOOP('',(#156));
#338=EDGE_LOOP('',(#157));
#339=EDGE_LOOP('',(#158));
#340=EDGE_LOOP('',(#159));
#341=EDGE_LOOP('',(#160));
#342=EDGE_LOOP('',(#161,#162,#163,#164));
#343=EDGE_LOOP('',(#165));
#344=EDGE_LOOP('',(#166,#167));
#345=EDGE_LOOP('',(#168,#169));
#346=EDGE_LOOP('',(#170));
#347=EDGE_LOOP('',(#171));
#348=EDGE_LOOP('',(#172));
#349=EDGE_LOOP('',(#173));
#350=EDGE_LOOP('',(#174));
#351=EDGE_LOOP('',(#175));
#352=EDGE_LOOP('',(#176));
#353=EDGE_LOOP('',(#177));
#354=EDGE_LOOP('',(#178));
#355=EDGE_LOOP('',(#179));
#356=FACE_BOUND('',#274,.T.);
#357=FACE_BOUND('',#275,.T.);
#358=FACE_BOUND('',#276,.T.);
#359=FACE_BOUND('',#277,.T.);
#360=FACE_BOUND('',#278,.T.);
#361=FACE_BOUND('',#279,.T.);
#362=FACE_BOUND('',#280,.T.);
#363=FACE_BOUND('',#281,.T.);
#364=FACE_BOUND('',#282,.T.);
#365=FACE_BOUND('',#283,.T.);
#366=FACE_BOUND('',#284,.T.);
#367=FACE_BOUND('',#285,.T.);
#368=FACE_BOUND('',#286,.T.);
#369=FACE_BOUND('',#287,.T.);
#370=FACE_BOUND('',#288,.T.);
#371=FACE_BOUND('',#289,.T.);
#372=FACE_BOUND('',#290,.T.);
#373=FACE_BOUND('',#291,.T.);
#374=FACE_BOUND('',#292,.T.);
#375=FACE_BOUND('',#293,.T.);
#376=FACE_BOUND('',#294,.T.);
#377=FACE_BOUND('',#295,.T.);
#378=FACE_BOUND('',#296,.T.);
#379=FACE_BOUND('',#297,.T.);
#380=FACE_BOUND('',#298,.T.);
#381=FACE_BOUND('',#299,.T.);
#382=FACE_BOUND('',#300,.T.);
#383=FACE_BOUND('',#301,.T.);
#384=FACE_BOUND('',#302,.T.);
#385=FACE_BOUND('',#303,.T.);
#386=FACE_BOUND('',#304,.T.);
#387=FACE_BOUND('',#305,.T.);
#388=FACE_BOUND('',#306,.T.);
#389=FACE_BOUND('',#307,.T.);
#390=FACE_BOUND('',#308,.T.);
#391=FACE_BOUND('',#309,.T.);
#392=FACE_BOUND('',#310,.T.);
#393=FACE_BOUND('',#311,.T.);
#394=FACE_BOUND('',#312,.T.);
#395=FACE_BOUND('',#313,.T.);
#396=FACE_BOUND('',#314,.T.);
#397=FACE_BOUND('',#315,.T.);
#398=FACE_BOUND('',#316,.T.);
#399=FACE_BOUND('',#317,.T.);
#400=FACE_BOUND('',#318,.T.);
#401=FACE_BOUND('',#319,.T.);
#402=FACE_BOUND('',#320,.T.);
#403=FACE_BOUND('',#321,.T.);
#404=FACE_BOUND('',#322,.T.);
#405=FACE_BOUND('',#323,.T.);
#406=FACE_BOUND('',#324,.T.);
#407=FACE_BOUND('',#325,.T.);
#408=FACE_BOUND('',#326,.T.);
#409=FACE_BOUND('',#327,.T.);
#410=FACE_BOUND('',#328,.T.);
#411=FACE_BOUND('',#329,.T.);
#412=FACE_BOUND('',#330,.T.);
#413=FACE_BOUND('',#331,.T.);
#414=FACE_BOUND('',#332,.T.);
#415=FACE_BOUND('',#333,.T.);
#416=FACE_BOUND('',#334,.T.);
#417=FACE_BOUND('',#335,.T.);
#418=FACE_BOUND('',#336,.T.);
#419=FACE_BOUND('',#337,.T.);
#420=FACE_BOUND('',#338,.T.);
#421=FACE_BOUND('',#339,.T.);
#422=FACE_BOUND('',#340,.T.);
#423=FACE_BOUND('',#341,.T.);
#424=FACE_BOUND('',#342,.T.);
#425=FACE_BOUND('',#343,.T.);
#426=FACE_BOUND('',#344,.T.);
#427=FACE_BOUND('',#345,.T.);
#428=FACE_BOUND('',#346,.T.);
#429=FACE_BOUND('',#347,.T.);
#430=FACE_BOUND('',#348,.T.);
#431=FACE_BOUND('',#349,.T.);
#432=FACE_BOUND('',#350,.T.);
#433=FACE_BOUND('',#351,.T.);
#434=FACE_BOUND('',#352,.T.);
#435=FACE_BOUND('',#353,.T.);
#436=FACE_BOUND('',#354,.T.);
#437=FACE_BOUND('',#355,.T.);
#438=CYLINDRICAL_SURFACE('',#512,9.5);
#439=CYLINDRICAL_SURFACE('',#515,1.5);
#440=CYLINDRICAL_SURFACE('',#518,1.5);
#441=CYLINDRICAL_SURFACE('',#521,1.5);
#442=CYLINDRICAL_SURFACE('',#524,11.5);
#443=CYLINDRICAL_SURFACE('',#545,11.5);
#444=CYLINDRICAL_SURFACE('',#548,8.25);
#445=CYLINDRICAL_SURFACE('',#557,1.5);
#446=CYLINDRICAL_SURFACE('',#558,1.5);
#447=CYLINDRICAL_SURFACE('',#559,1.5);
#448=CYLINDRICAL_SURFACE('',#560,1.5);
#449=CYLINDRICAL_SURFACE('',#568,1.75);
#450=CYLINDRICAL_SURFACE('',#574,9.5);
#451=CYLINDRICAL_SURFACE('',#577,13.);
#452=ADVANCED_FACE('',(#356,#357,#358),#438,.T.);
#453=ADVANCED_FACE('',(#359,#360,#361),#439,.F.);
#454=ADVANCED_FACE('',(#362,#363,#364),#440,.F.);
#455=ADVANCED_FACE('',(#365,#366,#367),#441,.F.);
#456=ADVANCED_FACE('',(#368,#369),#442,.T.);
#457=ADVANCED_FACE('',(#370,#371,#372,#373,#374,#375,#376,#377),#40,.T.);
#458=ADVANCED_FACE('',(#378,#379),#38,.F.);
#459=ADVANCED_FACE('',(#380,#381),#39,.F.);
#460=ADVANCED_FACE('',(#382,#383),#41,.F.);
#461=ADVANCED_FACE('',(#384,#385),#42,.F.);
#462=ADVANCED_FACE('',(#386,#387),#43,.F.);
#463=ADVANCED_FACE('',(#388,#389),#443,.T.);
#464=ADVANCED_FACE('',(#390,#391),#444,.F.);
#465=ADVANCED_FACE('',(#392,#393,#394,#395,#396,#397,#398,#399),#44,.F.);
#466=ADVANCED_FACE('',(#400,#401),#445,.F.);
#467=ADVANCED_FACE('',(#402,#403),#446,.F.);
#468=ADVANCED_FACE('',(#404,#405),#447,.F.);
#469=ADVANCED_FACE('',(#406,#407),#448,.F.);
#470=ADVANCED_FACE('',(#408,#409),#31,.F.);
#471=ADVANCED_FACE('',(#410,#411),#32,.F.);
#472=ADVANCED_FACE('',(#412,#413),#33,.T.);
#473=ADVANCED_FACE('',(#414,#415),#34,.T.);
#474=ADVANCED_FACE('',(#416,#417),#35,.T.);
#475=ADVANCED_FACE('',(#418,#419),#36,.T.);
#476=ADVANCED_FACE('',(#420,#421),#37,.F.);
#477=ADVANCED_FACE('',(#422,#423,#424,#425),#449,.F.);
#478=ADVANCED_FACE('',(#426),#45,.T.);
#479=ADVANCED_FACE('',(#427),#46,.T.);
#480=ADVANCED_FACE('',(#428,#429),#30,.T.);
#481=ADVANCED_FACE('',(#430,#431),#450,.F.);
#482=ADVANCED_FACE('',(#432,#433),#451,.T.);
#483=ADVANCED_FACE('',(#434,#435),#47,.F.);
#484=ADVANCED_FACE('',(#436,#437),#48,.T.);
#485=CLOSED_SHELL('',(#452,#453,#454,#455,#456,#457,#458,#459,#460,#461,
#462,#463,#464,#465,#466,#467,#468,#469,#470,#471,#472,#473,#474,#475,#476,
#477,#478,#479,#480));
#486=CLOSED_SHELL('',(#481,#482,#483,#484));
#487=STYLED_ITEM('',(#489),#503);
#488=STYLED_ITEM('',(#490),#504);
#489=PRESENTATION_STYLE_ASSIGNMENT((#491));
#490=PRESENTATION_STYLE_ASSIGNMENT((#492));
#491=SURFACE_STYLE_USAGE(.BOTH.,#493);
#492=SURFACE_STYLE_USAGE(.BOTH.,#494);
#493=SURFACE_SIDE_STYLE('',(#495));
#494=SURFACE_SIDE_STYLE('',(#496));
#495=SURFACE_STYLE_FILL_AREA(#497);
#496=SURFACE_STYLE_FILL_AREA(#498);
#497=FILL_AREA_STYLE('',(#499));
#498=FILL_AREA_STYLE('',(#500));
#499=FILL_AREA_STYLE_COLOUR('',#501);
#500=FILL_AREA_STYLE_COLOUR('',#502);
#501=COLOUR_RGB('',0.819999992847443,0.819999992847443,0.819999992847443);
#502=COLOUR_RGB('',1.,0.360000014305115,0.);
#503=MANIFOLD_SOLID_BREP('',#485);
#504=MANIFOLD_SOLID_BREP('',#486);
#505=SHAPE_DEFINITION_REPRESENTATION(#995,#508);
#506=SHAPE_DEFINITION_REPRESENTATION(#994,#509);
#507=SHAPE_DEFINITION_REPRESENTATION(#997,#510);
#508=SHAPE_REPRESENTATION('JS2622',(#511),#986);
#509=SHAPE_REPRESENTATION('JS2622',(#511,#573,#582),#985);
#510=SHAPE_REPRESENTATION('Goma JS2622',(#511),#987);
#511=AXIS2_PLACEMENT_3D('',#729,#583,#584);
#512=AXIS2_PLACEMENT_3D('',#730,#585,#586);
#513=AXIS2_PLACEMENT_3D('',#751,#587,#588);
#514=AXIS2_PLACEMENT_3D('',#753,#589,#590);
#515=AXIS2_PLACEMENT_3D('',#755,#591,#592);
#516=AXIS2_PLACEMENT_3D('',#756,#593,#594);
#517=AXIS2_PLACEMENT_3D('',#758,#595,#596);
#518=AXIS2_PLACEMENT_3D('',#772,#597,#598);
#519=AXIS2_PLACEMENT_3D('',#773,#599,#600);
#520=AXIS2_PLACEMENT_3D('',#775,#601,#602);
#521=AXIS2_PLACEMENT_3D('',#789,#603,#604);
#522=AXIS2_PLACEMENT_3D('',#790,#605,#606);
#523=AXIS2_PLACEMENT_3D('',#792,#607,#608);
#524=AXIS2_PLACEMENT_3D('',#822,#611,#612);
#525=AXIS2_PLACEMENT_3D('',#823,#613,#614);
#526=AXIS2_PLACEMENT_3D('',#825,#615,#616);
#527=AXIS2_PLACEMENT_3D('',#827,#617,#618);
#528=AXIS2_PLACEMENT_3D('',#828,#619,#620);
#529=AXIS2_PLACEMENT_3D('',#830,#621,#622);
#530=AXIS2_PLACEMENT_3D('',#832,#623,#624);
#531=AXIS2_PLACEMENT_3D('',#834,#625,#626);
#532=AXIS2_PLACEMENT_3D('',#836,#627,#628);
#533=AXIS2_PLACEMENT_3D('',#838,#629,#630);
#534=AXIS2_PLACEMENT_3D('',#840,#631,#632);
#535=AXIS2_PLACEMENT_3D('',#841,#633,#634);
#536=AXIS2_PLACEMENT_3D('',#843,#635,#636);
#537=AXIS2_PLACEMENT_3D('',#844,#637,#638);
#538=AXIS2_PLACEMENT_3D('',#846,#639,#640);
#539=AXIS2_PLACEMENT_3D('',#847,#641,#642);
#540=AXIS2_PLACEMENT_3D('',#849,#643,#644);
#541=AXIS2_PLACEMENT_3D('',#850,#645,#646);
#542=AXIS2_PLACEMENT_3D('',#852,#647,#648);
#543=AXIS2_PLACEMENT_3D('',#853,#649,#650);
#544=AXIS2_PLACEMENT_3D('',#855,#651,#652);
#545=AXIS2_PLACEMENT_3D('',#857,#653,#654);
#546=AXIS2_PLACEMENT_3D('',#858,#655,#656);
#547=AXIS2_PLACEMENT_3D('',#860,#657,#658);
#548=AXIS2_PLACEMENT_3D('',#862,#659,#660);
#549=AXIS2_PLACEMENT_3D('',#863,#661,#662);
#550=AXIS2_PLACEMENT_3D('',#865,#663,#664);
#551=AXIS2_PLACEMENT_3D('',#867,#665,#666);
#552=AXIS2_PLACEMENT_3D('',#868,#667,#668);
#553=AXIS2_PLACEMENT_3D('',#870,#669,#670);
#554=AXIS2_PLACEMENT_3D('',#872,#671,#672);
#555=AXIS2_PLACEMENT_3D('',#874,#673,#674);
#556=AXIS2_PLACEMENT_3D('',#876,#675,#676);
#557=AXIS2_PLACEMENT_3D('',#878,#677,#678);
#558=AXIS2_PLACEMENT_3D('',#879,#679,#680);
#559=AXIS2_PLACEMENT_3D('',#880,#681,#682);
#560=AXIS2_PLACEMENT_3D('',#881,#683,#684);
#561=AXIS2_PLACEMENT_3D('',#882,#685,#686);
#562=AXIS2_PLACEMENT_3D('',#883,#687,#688);
#563=AXIS2_PLACEMENT_3D('',#884,#689,#690);
#564=AXIS2_PLACEMENT_3D('',#885,#691,#692);
#565=AXIS2_PLACEMENT_3D('',#886,#693,#694);
#566=AXIS2_PLACEMENT_3D('',#887,#695,#696);
#567=AXIS2_PLACEMENT_3D('',#888,#697,#698);
#568=AXIS2_PLACEMENT_3D('',#889,#699,#700);
#569=AXIS2_PLACEMENT_3D('',#930,#701,#702);
#570=AXIS2_PLACEMENT_3D('',#931,#703,#704);
#571=AXIS2_PLACEMENT_3D('',#932,#705,#706);
#572=AXIS2_PLACEMENT_3D('',#933,#707,#708);
#573=AXIS2_PLACEMENT_3D('',#970,#709,#710);
#574=AXIS2_PLACEMENT_3D('',#971,#711,#712);
#575=AXIS2_PLACEMENT_3D('',#972,#713,#714);
#576=AXIS2_PLACEMENT_3D('',#974,#715,#716);
#577=AXIS2_PLACEMENT_3D('',#976,#717,#718);
#578=AXIS2_PLACEMENT_3D('',#977,#719,#720);
#579=AXIS2_PLACEMENT_3D('',#979,#721,#722);
#580=AXIS2_PLACEMENT_3D('',#981,#723,#724);
#581=AXIS2_PLACEMENT_3D('',#982,#725,#726);
#582=AXIS2_PLACEMENT_3D('',#983,#727,#728);
#583=DIRECTION('',(0.,0.,1.));
#584=DIRECTION('',(1.,0.,0.));
#585=DIRECTION('',(0.,0.,-1.));
#586=DIRECTION('',(-1.,0.,0.));
#587=DIRECTION('',(0.,0.,-1.));
#588=DIRECTION('',(-1.,0.,0.));
#589=DIRECTION('',(0.,0.,-1.));
#590=DIRECTION('',(-1.,0.,0.));
#591=DIRECTION('',(0.,0.,-1.));
#592=DIRECTION('',(-1.,0.,0.));
#593=DIRECTION('',(0.,0.,-1.));
#594=DIRECTION('',(-1.,0.,0.));
#595=DIRECTION('',(0.,0.,1.));
#596=DIRECTION('',(1.,0.,0.));
#597=DIRECTION('',(0.,0.,-1.));
#598=DIRECTION('',(-1.,0.,0.));
#599=DIRECTION('',(0.,0.,-1.));
#600=DIRECTION('',(-1.,0.,0.));
#601=DIRECTION('',(0.,0.,1.));
#602=DIRECTION('',(1.,0.,0.));
#603=DIRECTION('',(0.,0.,-1.));
#604=DIRECTION('',(-1.,0.,0.));
#605=DIRECTION('',(0.,0.,-1.));
#606=DIRECTION('',(-1.,0.,0.));
#607=DIRECTION('',(0.,0.,-1.));
#608=DIRECTION('',(-1.,0.,0.));
#609=DIRECTION('',(0.,0.,-1.));
#610=DIRECTION('',(0.,0.,-1.));
#611=DIRECTION('',(0.,0.,-1.));
#612=DIRECTION('',(-1.,0.,0.));
#613=DIRECTION('',(0.,0.,-1.));
#614=DIRECTION('',(-1.,0.,0.));
#615=DIRECTION('',(0.,0.,-1.));
#616=DIRECTION('',(-1.,0.,0.));
#617=DIRECTION('',(0.,0.,-1.));
#618=DIRECTION('',(-1.,0.,0.));
#619=DIRECTION('',(0.,0.,-1.));
#620=DIRECTION('',(-1.,0.,0.));
#621=DIRECTION('',(0.,0.,-1.));
#622=DIRECTION('',(-1.,0.,0.));
#623=DIRECTION('',(0.,0.,1.));
#624=DIRECTION('',(1.,0.,0.));
#625=DIRECTION('',(0.,0.,1.));
#626=DIRECTION('',(1.,0.,0.));
#627=DIRECTION('',(0.,0.,1.));
#628=DIRECTION('',(1.,0.,0.));
#629=DIRECTION('',(0.,0.,1.));
#630=DIRECTION('',(1.,0.,0.));
#631=DIRECTION('',(0.,0.,-1.));
#632=DIRECTION('',(-1.,0.,0.));
#633=DIRECTION('',(0.,0.,-1.));
#634=DIRECTION('',(-1.,0.,0.));
#635=DIRECTION('',(0.,0.,-1.));
#636=DIRECTION('',(-1.,0.,0.));
#637=DIRECTION('',(0.,0.,-1.));
#638=DIRECTION('',(-1.,0.,0.));
#639=DIRECTION('',(0.,0.,-1.));
#640=DIRECTION('',(-1.,0.,0.));
#641=DIRECTION('',(0.,0.,-1.));
#642=DIRECTION('',(-1.,0.,0.));
#643=DIRECTION('',(0.,0.,1.));
#644=DIRECTION('',(1.,0.,0.));
#645=DIRECTION('',(0.,0.,1.));
#646=DIRECTION('',(1.,0.,0.));
#647=DIRECTION('',(0.,0.,-1.));
#648=DIRECTION('',(-1.,0.,0.));
#649=DIRECTION('',(0.,0.,-1.));
#650=DIRECTION('',(-1.,0.,0.));
#651=DIRECTION('',(0.,0.,-1.));
#652=DIRECTION('',(-1.,0.,0.));
#653=DIRECTION('',(0.,0.,-1.));
#654=DIRECTION('',(-1.,0.,0.));
#655=DIRECTION('',(0.,0.,1.));
#656=DIRECTION('',(1.,0.,0.));
#657=DIRECTION('',(0.,0.,-1.));
#658=DIRECTION('',(-1.,0.,0.));
#659=DIRECTION('',(0.,0.,1.));
#660=DIRECTION('',(1.,0.,0.));
#661=DIRECTION('',(0.,0.,-1.));
#662=DIRECTION('',(-1.,0.,0.));
#663=DIRECTION('',(0.,0.,-1.));
#664=DIRECTION('',(1.,0.,0.));
#665=DIRECTION('',(0.,0.,-1.));
#666=DIRECTION('',(-1.,0.,0.));
#667=DIRECTION('',(0.,0.,-1.));
#668=DIRECTION('',(-1.,0.,0.));
#669=DIRECTION('',(0.,0.,-1.));
#670=DIRECTION('',(-1.,0.,0.));
#671=DIRECTION('',(0.,0.,-1.));
#672=DIRECTION('',(-1.,0.,0.));
#673=DIRECTION('',(0.,0.,-1.));
#674=DIRECTION('',(-1.,0.,0.));
#675=DIRECTION('',(0.,0.,-1.));
#676=DIRECTION('',(-1.,0.,0.));
#677=DIRECTION('',(0.,0.,-1.));
#678=DIRECTION('',(-1.,0.,0.));
#679=DIRECTION('',(0.,0.,-1.));
#680=DIRECTION('',(-1.,0.,0.));
#681=DIRECTION('',(0.,0.,-1.));
#682=DIRECTION('',(-1.,0.,0.));
#683=DIRECTION('',(0.,0.,-1.));
#684=DIRECTION('',(-1.,0.,0.));
#685=DIRECTION('',(0.,0.,1.));
#686=DIRECTION('',(1.,0.,0.));
#687=DIRECTION('',(0.,0.,-1.));
#688=DIRECTION('',(-1.,0.,0.));
#689=DIRECTION('',(0.,0.,-1.));
#690=DIRECTION('',(-1.,0.,0.));
#691=DIRECTION('',(0.,0.,1.));
#692=DIRECTION('',(1.,0.,0.));
#693=DIRECTION('',(0.,0.,1.));
#694=DIRECTION('',(1.,0.,0.));
#695=DIRECTION('',(0.,0.,-1.));
#696=DIRECTION('',(-1.,0.,0.));
#697=DIRECTION('',(0.,0.,1.));
#698=DIRECTION('',(1.,0.,0.));
#699=DIRECTION('',(0.,1.,0.));
#700=DIRECTION('',(0.,0.,1.));
#701=DIRECTION('',(0.,-1.,0.));
#702=DIRECTION('',(1.,0.,0.));
#703=DIRECTION('',(0.,-1.,0.));
#704=DIRECTION('',(1.,0.,0.));
#705=DIRECTION('',(0.,-1.,0.));
#706=DIRECTION('',(0.,0.,-1.));
#707=DIRECTION('',(0.,-1.,0.));
#708=DIRECTION('',(0.,0.,-1.));
#709=DIRECTION('',(0.,0.,1.));
#710=DIRECTION('',(1.,0.,0.));
#711=DIRECTION('',(0.,0.,-1.));
#712=DIRECTION('',(-1.,0.,0.));
#713=DIRECTION('',(0.,0.,-1.));
#714=DIRECTION('',(1.,0.,0.));
#715=DIRECTION('',(0.,0.,-1.));
#716=DIRECTION('',(1.,0.,0.));
#717=DIRECTION('',(0.,0.,-1.));
#718=DIRECTION('',(-1.,0.,0.));
#719=DIRECTION('',(0.,0.,-1.));
#720=DIRECTION('',(1.,0.,0.));
#721=DIRECTION('',(0.,0.,-1.));
#722=DIRECTION('',(1.,0.,0.));
#723=DIRECTION('',(0.,0.,-1.));
#724=DIRECTION('',(-1.,0.,0.));
#725=DIRECTION('',(0.,0.,-1.));
#726=DIRECTION('',(-1.,0.,0.));
#727=DIRECTION('',(-3.46944695195361E-17,1.66533453693774E-16,1.));
#728=DIRECTION('',(1.,-2.22044604925031E-16,3.46944695195362E-17));
#729=CARTESIAN_POINT('',(0.,0.,0.));
#730=CARTESIAN_POINT('',(0.,0.,-0.503456342631647));
#731=CARTESIAN_POINT('',(-0.837850606084879,-9.47371092765401,5.42864295720596));
#732=CARTESIAN_POINT('',(-0.0266049557535884,-9.51204554919189,5.60588369642987));
#733=CARTESIAN_POINT('',(0.778931815195106,-9.47792799209457,5.44710546075509));
#734=CARTESIAN_POINT('',(1.45960775055488,-9.39338538483405,5.01454957790574));
#735=CARTESIAN_POINT('',(1.91639746350457,-9.30639263230955,4.34496903393525));
#736=CARTESIAN_POINT('',(2.09702850500601,-9.2654073706395,3.54333289588005));
#737=CARTESIAN_POINT('',(1.95061798452791,-9.2989501077407,2.73891232323608));
#738=CARTESIAN_POINT('',(1.51888034671374,-9.38340322690405,2.04512177917111));
#739=CARTESIAN_POINT('',(0.850203940625972,-9.47205961537224,1.58018630775999));
#740=CARTESIAN_POINT('',(0.0425038010825201,-9.51195252742878,1.39442743455706));
#741=CARTESIAN_POINT('',(-0.765939591098102,-9.47956309585843,1.54479791895907));
#742=CARTESIAN_POINT('',(-1.45961615306152,-9.39339755873819,1.98519605552269));
#743=CARTESIAN_POINT('',(-1.91675736177669,-9.30631619810744,2.6555992504369));
#744=CARTESIAN_POINT('',(-2.09699785301358,-9.26541255068442,3.45812042391749));
#745=CARTESIAN_POINT('',(-1.95052508660951,-9.29897408096689,4.2620893880341));
#746=CARTESIAN_POINT('',(-1.51851655542231,-9.3834587703159,4.95503505345933));
#747=CARTESIAN_POINT('',(-0.837850606084879,-9.47371092765401,5.42864295720596));
#748=CARTESIAN_POINT('',(-0.0266049557535884,-9.51204554919189,5.60588369642987));
#749=CARTESIAN_POINT('',(0.778931815195106,-9.47792799209457,5.44710546075509));
#750=CARTESIAN_POINT('',(0.000195588236600848,-9.49999999798659,5.54999999067887));
#751=CARTESIAN_POINT('',(0.,0.,1.3));
#752=CARTESIAN_POINT('',(-9.5,0.,1.3));
#753=CARTESIAN_POINT('',(0.,0.,20.7));
#754=CARTESIAN_POINT('',(-9.5,0.,20.7));
#755=CARTESIAN_POINT('',(-3.00000000000001,-5.19615242270663,39.2683078321437));
#756=CARTESIAN_POINT('',(-3.00000000000001,-5.19615242270663,6.));
#757=CARTESIAN_POINT('',(-4.50000000000001,-5.19615242270663,6.));
#758=CARTESIAN_POINT('',(-3.00000000000001,-5.19615242270663,0.));
#759=CARTESIAN_POINT('',(-1.50000000000001,-5.19615242270663,0.));
#760=CARTESIAN_POINT('',(-1.63527536407509,-4.50364391174447,4.20480553651498));
#761=CARTESIAN_POINT('',(-1.43248108246524,-5.19648634920682,4.499341291649));
#762=CARTESIAN_POINT('',(-1.63480030606402,-5.88732522766799,4.2061562100849));
#763=CARTESIAN_POINT('',(-1.80747895612577,-6.09416023522513,3.49938383829021));
#764=CARTESIAN_POINT('',(-1.63528383187561,-5.88788549664105,2.79542034016848));
#765=CARTESIAN_POINT('',(-1.43253945129693,-5.19871365338196,2.5006849907485));
#766=CARTESIAN_POINT('',(-1.63456445848571,-4.50464915016412,2.79352292726125));
#767=CARTESIAN_POINT('',(-1.8075399635107,-4.29842119408415,3.49976637982443));
#768=CARTESIAN_POINT('',(-1.63527536407509,-4.50364391174447,4.20480553651498));
#769=CARTESIAN_POINT('',(-1.43248108246524,-5.19648634920682,4.499341291649));
#770=CARTESIAN_POINT('',(-1.63480030606402,-5.88732522766799,4.2061562100849));
#771=CARTESIAN_POINT('',(-1.50000000000001,-5.19615242270663,4.40138781886598));
#772=CARTESIAN_POINT('',(3.,-5.19615242270663,39.2683078321437));
#773=CARTESIAN_POINT('',(3.,-5.19615242270663,6.));
#774=CARTESIAN_POINT('',(1.5,-5.19615242270663,6.));
#775=CARTESIAN_POINT('',(3.,-5.19615242270663,0.));
#776=CARTESIAN_POINT('',(4.5,-5.19615242270663,0.));
#777=CARTESIAN_POINT('',(1.63527536407508,-5.8886609336688,4.20480553651499));
#778=CARTESIAN_POINT('',(1.43248108246523,-5.19581849620644,4.49934129164902));
#779=CARTESIAN_POINT('',(1.63480030606401,-4.50497961774526,4.20615621008491));
#780=CARTESIAN_POINT('',(1.80747895612578,-4.29814461018811,3.4993838382902));
#781=CARTESIAN_POINT('',(1.63528383187561,-4.5044193487722,2.79542034016847));
#782=CARTESIAN_POINT('',(1.43253945129692,-5.19359119203129,2.50068499074848));
#783=CARTESIAN_POINT('',(1.63456445848571,-5.88765569524915,2.79352292726123));
#784=CARTESIAN_POINT('',(1.80753996351071,-6.09388365132913,3.49976637982443));
#785=CARTESIAN_POINT('',(1.63527536407508,-5.8886609336688,4.20480553651499));
#786=CARTESIAN_POINT('',(1.43248108246523,-5.19581849620644,4.49934129164902));
#787=CARTESIAN_POINT('',(1.63480030606401,-4.50497961774526,4.20615621008491));
#788=CARTESIAN_POINT('',(1.5,-5.19615242270663,4.401387818866));
#789=CARTESIAN_POINT('',(0.,0.,39.2683078321437));
#790=CARTESIAN_POINT('',(0.,0.,5.79999999999999));
#791=CARTESIAN_POINT('',(-1.5,0.,5.79999999999999));
#792=CARTESIAN_POINT('',(0.,0.,0.199999999999999));
#793=CARTESIAN_POINT('',(-1.5,0.,0.199999999999999));
#794=CARTESIAN_POINT('',(1.5,0.,4.40138781886599));
#795=CARTESIAN_POINT('',(1.5,-0.214196431313783,4.40138781886599));
#796=CARTESIAN_POINT('',(1.40798007144456,-0.611030615985392,4.56136331514513));
#797=CARTESIAN_POINT('',(1.10356243566915,-1.0638573966118,4.88813535158643));
#798=CARTESIAN_POINT('',(0.632323228611061,-1.40560046520738,5.16792750444539));
#799=CARTESIAN_POINT('',(0.00264827040703716,-1.54679081074013,5.29069336844642));
#800=CARTESIAN_POINT('',(-0.629363391983448,-1.40722608729334,5.16929027502271));
#801=CARTESIAN_POINT('',(-1.10169808925791,-1.06571875114483,4.88967581309919));
#802=CARTESIAN_POINT('',(-1.40730485926878,-0.613354596639375,4.56247180267472));
#803=CARTESIAN_POINT('',(-1.5,-0.214145658436576,4.40138781886599));
#804=CARTESIAN_POINT('',(-1.5,5.17336901699828E-17,4.40138781886599));
#805=CARTESIAN_POINT('',(1.5,0.,4.40138781886599));
#806=CARTESIAN_POINT('',(-1.5,0.,4.40138781886599));
#807=CARTESIAN_POINT('',(-1.5,0.,39.2683078321437));
#808=CARTESIAN_POINT('',(-1.5,0.,2.598612181134));
#809=CARTESIAN_POINT('',(-1.5,0.,2.598612181134));
#810=CARTESIAN_POINT('',(-1.5,-0.214196431313783,2.598612181134));
#811=CARTESIAN_POINT('',(-1.40798007144456,-0.611030615985392,2.43863668485486));
#812=CARTESIAN_POINT('',(-1.10356243566915,-1.0638573966118,2.11186464841356));
#813=CARTESIAN_POINT('',(-0.632323228611062,-1.40560046520738,1.8320724955546));
#814=CARTESIAN_POINT('',(-0.00264827040703568,-1.54679081074013,1.70930663155357));
#815=CARTESIAN_POINT('',(0.629363391983447,-1.40722608729334,1.83070972497728));
#816=CARTESIAN_POINT('',(1.10169808925791,-1.06571875114483,2.1103241869008));
#817=CARTESIAN_POINT('',(1.40730485926878,-0.613354596639375,2.43752819732527));
#818=CARTESIAN_POINT('',(1.5,-0.214145658436575,2.598612181134));
#819=CARTESIAN_POINT('',(1.5,-4.21701283258774E-17,2.598612181134));
#820=CARTESIAN_POINT('',(1.5,0.,2.598612181134));
#821=CARTESIAN_POINT('',(1.5,0.,39.2683078321437));
#822=CARTESIAN_POINT('',(0.,0.,22.));
#823=CARTESIAN_POINT('',(0.,0.,0.800000000000002));
#824=CARTESIAN_POINT('',(-11.5,0.,0.800000000000002));
#825=CARTESIAN_POINT('',(0.,0.,0.199999999999999));
#826=CARTESIAN_POINT('',(-11.5,0.,0.199999999999999));
#827=CARTESIAN_POINT('',(0.,0.,0.));
#828=CARTESIAN_POINT('',(0.,0.,0.));
#829=CARTESIAN_POINT('',(-11.3,0.,0.));
#830=CARTESIAN_POINT('',(0.,0.,0.));
#831=CARTESIAN_POINT('',(-1.9,0.,0.));
#832=CARTESIAN_POINT('',(6.,-1.73472347597681E-15,0.));
#833=CARTESIAN_POINT('',(7.5,-1.73472347597681E-15,0.));
#834=CARTESIAN_POINT('',(-6.,4.77048955893622E-15,0.));
#835=CARTESIAN_POINT('',(-4.5,4.77048955893622E-15,0.));
#836=CARTESIAN_POINT('',(-3.,5.19615242270663,0.));
#837=CARTESIAN_POINT('',(-1.5,5.19615242270663,0.));
#838=CARTESIAN_POINT('',(3.,5.19615242270663,0.));
#839=CARTESIAN_POINT('',(4.5,5.19615242270663,0.));
#840=CARTESIAN_POINT('',(0.,0.,20.7));
#841=CARTESIAN_POINT('',(0.,0.,21.));
#842=CARTESIAN_POINT('',(-9.8,0.,21.));
#843=CARTESIAN_POINT('',(0.,0.,1.3));
#844=CARTESIAN_POINT('',(0.,0.,1.));
#845=CARTESIAN_POINT('',(-9.8,0.,1.));
#846=CARTESIAN_POINT('',(-9.8,-1.20015386316441E-15,1.));
#847=CARTESIAN_POINT('',(0.,0.,1.));
#848=CARTESIAN_POINT('',(-11.3,0.,1.));
#849=CARTESIAN_POINT('',(-11.5,-1.40834381901946E-15,21.));
#850=CARTESIAN_POINT('',(0.,0.,21.));
#851=CARTESIAN_POINT('',(11.3,0.,21.));
#852=CARTESIAN_POINT('',(0.,0.,22.));
#853=CARTESIAN_POINT('',(0.,0.,22.));
#854=CARTESIAN_POINT('',(-8.65,0.,22.));
#855=CARTESIAN_POINT('',(0.,0.,22.));
#856=CARTESIAN_POINT('',(-11.3,0.,22.));
#857=CARTESIAN_POINT('',(0.,0.,22.));
#858=CARTESIAN_POINT('',(0.,0.,21.2));
#859=CARTESIAN_POINT('',(11.5,0.,21.2));
#860=CARTESIAN_POINT('',(0.,0.,21.8));
#861=CARTESIAN_POINT('',(-11.5,0.,21.8));
#862=CARTESIAN_POINT('',(0.,0.,5.99999999999999));
#863=CARTESIAN_POINT('',(0.,0.,21.6));
#864=CARTESIAN_POINT('',(-8.25,0.,21.6));
#865=CARTESIAN_POINT('',(0.,0.,5.99999999999999));
#866=CARTESIAN_POINT('',(8.25,0.,5.99999999999999));
#867=CARTESIAN_POINT('',(0.,0.,5.99999999999999));
#868=CARTESIAN_POINT('',(0.,0.,5.99999999999999));
#869=CARTESIAN_POINT('',(-1.89999999999999,0.,5.99999999999999));
#870=CARTESIAN_POINT('',(6.,-1.73472347597681E-15,6.));
#871=CARTESIAN_POINT('',(4.5,-1.73472347597681E-15,6.));
#872=CARTESIAN_POINT('',(-6.,4.77048955893622E-15,6.));
#873=CARTESIAN_POINT('',(-7.5,4.77048955893622E-15,6.));
#874=CARTESIAN_POINT('',(-3.,5.19615242270663,6.));
#875=CARTESIAN_POINT('',(-4.5,5.19615242270663,6.));
#876=CARTESIAN_POINT('',(3.,5.19615242270663,6.));
#877=CARTESIAN_POINT('',(1.5,5.19615242270663,6.));
#878=CARTESIAN_POINT('',(3.,5.19615242270663,39.2683078321437));
#879=CARTESIAN_POINT('',(-3.,5.19615242270663,39.2683078321437));
#880=CARTESIAN_POINT('',(-6.,4.77048955893622E-15,39.2683078321437));
#881=CARTESIAN_POINT('',(6.,-1.73472347597681E-15,39.2683078321437));
#882=CARTESIAN_POINT('',(0.,0.,5.79999999999999));
#883=CARTESIAN_POINT('',(0.,0.,0.));
#884=CARTESIAN_POINT('',(0.,0.,0.800000000000002));
#885=CARTESIAN_POINT('',(0.,0.,0.));
#886=CARTESIAN_POINT('',(0.,0.,21.));
#887=CARTESIAN_POINT('',(0.,0.,21.8));
#888=CARTESIAN_POINT('',(0.,0.,22.));
#889=CARTESIAN_POINT('',(3.75048082238876E-16,-39.2683078321437,3.49999999999999));
#890=CARTESIAN_POINT('',(0.000161692971004405,-9.19999999862085,5.2499999925301));
#891=CARTESIAN_POINT('',(-0.0136361071820755,-9.19999968382911,5.25000126739142));
#892=CARTESIAN_POINT('',(-0.111119968863591,-9.19924461324183,5.24821026685747));
#893=CARTESIAN_POINT('',(-0.25892401588973,-9.19469651920256,5.23361533520204));
#894=CARTESIAN_POINT('',(-0.503142016739468,-9.18331781072279,5.18671579203621));
#895=CARTESIAN_POINT('',(-0.828492043166139,-9.16058572507897,5.05705860228621));
#896=CARTESIAN_POINT('',(-1.17894623633375,-9.12865552515355,4.82027693142611));
#897=CARTESIAN_POINT('',(-1.47837169582425,-9.0879770161796,4.46775485125157));
#898=CARTESIAN_POINT('',(-1.70249218664107,-9.05490069012039,4.01675327665196));
#899=CARTESIAN_POINT('',(-1.77248702003046,-9.04048656511476,3.54204358751977));
#900=CARTESIAN_POINT('',(-1.72012864771188,-9.04759290961182,3.13864008396336));
#901=CARTESIAN_POINT('',(-1.63735735127268,-9.0630773955159,2.85303001423323));
#902=CARTESIAN_POINT('',(-1.49844400033187,-9.08448548809876,2.5819586970569));
#903=CARTESIAN_POINT('',(-1.341506541717,-9.10707581007486,2.36656449062964));
#904=CARTESIAN_POINT('',(-1.07566403475119,-9.13948956995335,2.10006116980668));
#905=CARTESIAN_POINT('',(-0.884986342704601,-9.15787440425668,1.98738726767865));
#906=CARTESIAN_POINT('',(-0.772673982664896,-9.16784739717931,1.9297450257884));
#907=CARTESIAN_POINT('',(-0.744911818548851,-9.17018824202226,1.91597806772801));
#908=CARTESIAN_POINT('',(-0.624195717051266,-9.1788549321886,1.86273648472588));
#909=CARTESIAN_POINT('',(-0.500542172936661,-9.18563514929346,1.82072110908764));
#910=CARTESIAN_POINT('',(-0.27925912427872,-9.1944125469871,1.76564005008791));
#911=CARTESIAN_POINT('',(0.111299156565251,-9.20045771180204,1.72890127781776));
#912=CARTESIAN_POINT('',(0.669898900574546,-9.18150955815397,1.83544652618932));
#913=CARTESIAN_POINT('',(1.25764809235497,-9.12815485057144,2.21658728073055));
#914=CARTESIAN_POINT('',(1.5832129805224,-9.07051954099344,2.70155232636376));
#915=CARTESIAN_POINT('',(1.71672582026137,-9.04433954007538,3.10846224015706));
#916=CARTESIAN_POINT('',(1.7547304743094,-9.03990490621392,3.40687580253717));
#917=CARTESIAN_POINT('',(1.74727792395177,-9.0425759783907,3.65079505553127));
#918=CARTESIAN_POINT('',(1.72203681708321,-9.04762684264364,3.82206912314186));
#919=CARTESIAN_POINT('',(1.69770490566063,-9.05195430355306,3.92581647077597));
#920=CARTESIAN_POINT('',(1.68318383225613,-9.05479438839629,3.98048415656352));
#921=CARTESIAN_POINT('',(1.64059772578474,-9.06318758770179,4.12099531443698));
#922=CARTESIAN_POINT('',(1.53688820004118,-9.08165757450358,4.3593592796591));
#923=CARTESIAN_POINT('',(1.34930329640136,-9.10801195952283,4.63612029336113));
#924=CARTESIAN_POINT('',(1.0980023766531,-9.13724779283646,4.86947163672539));
#925=CARTESIAN_POINT('',(0.87943147210212,-9.15982544906699,5.02201823427805));
#926=CARTESIAN_POINT('',(0.488137745232914,-9.18962956911851,5.21021112318238));
#927=CARTESIAN_POINT('',(0.177681040995051,-9.19999697038674,5.2499835904553));
#928=CARTESIAN_POINT('',(0.000161692971004104,-9.19999999862085,5.2499999925301));
#929=CARTESIAN_POINT('',(0.000161692971004254,-9.19999999862085,5.2499999925301));
#930=CARTESIAN_POINT('',(3.75048082238876E-16,0.,3.49999999999999));
#931=CARTESIAN_POINT('',(3.75048082238876E-16,0.,3.49999999999999));
#932=CARTESIAN_POINT('',(3.75048082238876E-16,0.,3.49999999999999));
#933=CARTESIAN_POINT('',(3.75048082238876E-16,0.,3.49999999999999));
#934=CARTESIAN_POINT('',(0.447126230822855,-9.19999237402514,5.24995869480189));
#935=CARTESIAN_POINT('',(-0.446802844880846,-9.20000762321656,5.25004129025831));
#936=CARTESIAN_POINT('',(-0.893041123596214,-9.16351077598617,5.07280899775777));
#937=CARTESIAN_POINT('',(-1.5479189582349,-9.08108403875426,4.43551990390305));
#938=CARTESIAN_POINT('',(-1.74982851026745,-9.04227290506275,3.97350507625879));
#939=CARTESIAN_POINT('',(-1.75017125988129,-9.04221267815058,3.02776337110175));
#940=CARTESIAN_POINT('',(-1.54842140951177,-9.0810047453715,2.56522295361189));
#941=CARTESIAN_POINT('',(-0.893536289576698,-9.16346447899573,1.92741935434204));
#942=CARTESIAN_POINT('',(-0.447010338047417,-9.19999452443364,1.75002965752596));
#943=CARTESIAN_POINT('',(0.446778095488443,-9.20000547414376,1.74997035017926));
#944=CARTESIAN_POINT('',(0.89387012137854,-9.16341764822913,1.92782037868368));
#945=CARTESIAN_POINT('',(1.54778887656806,-9.08108918485047,2.56453105388379));
#946=CARTESIAN_POINT('',(1.75012920952991,-9.04222006671403,3.02797564722004));
#947=CARTESIAN_POINT('',(1.74987065947413,-9.04226549912853,3.97298193916756));
#948=CARTESIAN_POINT('',(1.54808966258849,-9.08105599525604,4.43525009642347));
#949=CARTESIAN_POINT('',(0.893278194556921,-9.16348749041872,5.07268191742722));
#950=CARTESIAN_POINT('',(0.447126230822855,-9.19999237402514,5.24995869480189));
#951=CARTESIAN_POINT('',(-0.446802844880846,-9.20000762321656,5.25004129025831));
#952=CARTESIAN_POINT('',(0.54085610114607,-9.49998886674066,5.54994845891596));
#953=CARTESIAN_POINT('',(-0.540464924672868,-9.50001112923252,5.55005152244178));
#954=CARTESIAN_POINT('',(-1.07411376402107,-9.44672783966178,5.3260830683929));
#955=CARTESIAN_POINT('',(-1.8251801774146,-9.33076120017404,4.56867823624605));
#956=CARTESIAN_POINT('',(-2.04279353126647,-9.27776883875453,4.03874772076544));
#957=CARTESIAN_POINT('',(-2.04316795990878,-9.2776863885535,2.96269550159404));
#958=CARTESIAN_POINT('',(-1.82574133969055,-9.33065111076232,2.43219083439489));
#959=CARTESIAN_POINT('',(-1.07469672624469,-9.44666123753912,1.67420210239244));
#960=CARTESIAN_POINT('',(-0.540715914349966,-9.49999200621365,1.4500370072857));
#961=CARTESIAN_POINT('',(0.540434987403682,-9.50000799170951,1.44996300232907));
#962=CARTESIAN_POINT('',(1.07507506672774,-9.44659579158774,1.67467457111798));
#963=CARTESIAN_POINT('',(1.82502043648112,-9.3307694674753,2.43137267701706));
#964=CARTESIAN_POINT('',(2.04312202545904,-9.27769650344286,2.96293702892954));
#965=CARTESIAN_POINT('',(2.04283957370979,-9.27775870008468,4.03815249999114));
#966=CARTESIAN_POINT('',(1.82536979077691,-9.33072234558691,4.56836320991037));
#967=CARTESIAN_POINT('',(1.07439181625074,-9.44669447948272,5.32592640532904));
#968=CARTESIAN_POINT('',(0.54085610114607,-9.49998886674066,5.54994845891596));
#969=CARTESIAN_POINT('',(-0.540464924672868,-9.50001112923252,5.55005152244178));
#970=CARTESIAN_POINT('',(0.,0.,0.));
#971=CARTESIAN_POINT('',(0.,0.,19.));
#972=CARTESIAN_POINT('',(0.,0.,19.8));
#973=CARTESIAN_POINT('',(9.5,0.,19.8));
#974=CARTESIAN_POINT('',(0.,0.,0.));
#975=CARTESIAN_POINT('',(9.5,0.,0.));
#976=CARTESIAN_POINT('',(0.,0.,19.));
#977=CARTESIAN_POINT('',(0.,0.,19.8));
#978=CARTESIAN_POINT('',(13.,0.,19.8));
#979=CARTESIAN_POINT('',(0.,0.,0.));
#980=CARTESIAN_POINT('',(13.,0.,0.));
#981=CARTESIAN_POINT('',(0.,0.,19.8));
#982=CARTESIAN_POINT('',(0.,0.,0.));
#983=CARTESIAN_POINT('',(0.,3.90312782094782E-15,1.1));
#984=MECHANICAL_DESIGN_GEOMETRIC_PRESENTATION_REPRESENTATION('',(#487,#488),
#985);
#985=(
GEOMETRIC_REPRESENTATION_CONTEXT(3)
GLOBAL_UNCERTAINTY_ASSIGNED_CONTEXT((#988))
GLOBAL_UNIT_ASSIGNED_CONTEXT((#993,#992,#991))
REPRESENTATION_CONTEXT('JS2622','TOP_LEVEL_ASSEMBLY_PART')
);
#986=(
GEOMETRIC_REPRESENTATION_CONTEXT(3)
GLOBAL_UNCERTAINTY_ASSIGNED_CONTEXT((#989))
GLOBAL_UNIT_ASSIGNED_CONTEXT((#993,#992,#991))
REPRESENTATION_CONTEXT('JS2622','COMPONENT_PART')
);
#987=(
GEOMETRIC_REPRESENTATION_CONTEXT(3)
GLOBAL_UNCERTAINTY_ASSIGNED_CONTEXT((#990))
GLOBAL_UNIT_ASSIGNED_CONTEXT((#993,#992,#991))
REPRESENTATION_CONTEXT('Goma JS2622','COMPONENT_PART')
);
#988=UNCERTAINTY_MEASURE_WITH_UNIT(LENGTH_MEASURE(0.005),#993,
'DISTANCE_ACCURACY_VALUE','Maximum Tolerance applied to model');
#989=UNCERTAINTY_MEASURE_WITH_UNIT(LENGTH_MEASURE(0.005),#993,
'DISTANCE_ACCURACY_VALUE','Maximum Tolerance applied to model');
#990=UNCERTAINTY_MEASURE_WITH_UNIT(LENGTH_MEASURE(0.005),#993,
'DISTANCE_ACCURACY_VALUE','Maximum Tolerance applied to model');
#991=(
NAMED_UNIT(*)
SI_UNIT($,.STERADIAN.)
SOLID_ANGLE_UNIT()
);
#992=(
NAMED_UNIT(*)
PLANE_ANGLE_UNIT()
SI_UNIT($,.RADIAN.)
);
#993=(
LENGTH_UNIT()
NAMED_UNIT(*)
SI_UNIT(.MILLI.,.METRE.)
);
#994=PRODUCT_DEFINITION_SHAPE('','',#999);
#995=PRODUCT_DEFINITION_SHAPE('','',#1000);
#996=PRODUCT_DEFINITION_SHAPE(' ','NAUO PRDDFN',#20);
#997=PRODUCT_DEFINITION_SHAPE('','',#1001);
#998=PRODUCT_DEFINITION_SHAPE(' ','NAUO PRDDFN',#21);
#999=PRODUCT_DEFINITION('','',#1005,#1002);
#1000=PRODUCT_DEFINITION('','',#1006,#1003);
#1001=PRODUCT_DEFINITION('','',#1007,#1004);
#1002=PRODUCT_DEFINITION_CONTEXT('',#1021,'design');
#1003=PRODUCT_DEFINITION_CONTEXT('',#1021,'design');
#1004=PRODUCT_DEFINITION_CONTEXT('',#1021,'design');
#1005=PRODUCT_DEFINITION_FORMATION_WITH_SPECIFIED_SOURCE('','',#1011,
 .NOT_KNOWN.);
#1006=PRODUCT_DEFINITION_FORMATION_WITH_SPECIFIED_SOURCE('','',#1012,
 .NOT_KNOWN.);
#1007=PRODUCT_DEFINITION_FORMATION_WITH_SPECIFIED_SOURCE('','',#1013,
 .NOT_KNOWN.);
#1008=PRODUCT_RELATED_PRODUCT_CATEGORY('','',(#1011));
#1009=PRODUCT_RELATED_PRODUCT_CATEGORY('','',(#1012));
#1010=PRODUCT_RELATED_PRODUCT_CATEGORY('','',(#1013));
#1011=PRODUCT('JS2622','JS2622','JS2622',(#1017));
#1012=PRODUCT('JS2622','JS2622','JS2622',(#1018));
#1013=PRODUCT('Goma JS2622','Goma JS2622','Goma JS2622',(#1019));
#1014=PRODUCT_CATEGORY('','');
#1015=PRODUCT_CATEGORY('','');
#1016=PRODUCT_CATEGORY('','');
#1017=PRODUCT_CONTEXT('',#1021,'mechanical');
#1018=PRODUCT_CONTEXT('',#1021,'mechanical');
#1019=PRODUCT_CONTEXT('',#1021,'mechanical');
#1020=APPLICATION_PROTOCOL_DEFINITION('international standard',
'automotive_design',2010,#1021);
#1021=APPLICATION_CONTEXT(
'core data for automotive mechanical design processes');
ENDSEC;
END-ISO-10303-21;
